<svg width="225" height="231" viewBox="0 0 225 231" fill="none" xmlns="http://www.w3.org/2000/svg">
<g style="mix-blend-mode:difference">
<path fill-rule="evenodd" clip-rule="evenodd" d="M106.625 102.912C108.57 102.892 110.529 102.882 112.5 102.882C114.47 102.882 116.429 102.892 118.375 102.912C119.051 45.2609 125.715 0 133.836 0C142.026 0 148.735 46.0437 149.312 104.404C193.366 108.689 225 123.52 225 166.941C225 221.732 174.632 231 112.5 231C50.3679 231 0 221.732 0 166.941C0 123.52 31.6338 108.689 75.687 104.404C76.2648 46.0437 82.9732 0 91.1638 0C99.2845 0 105.948 45.2609 106.625 102.912ZM109.835 186.485V192.02L104.365 196.278C103.058 197.295 102.823 199.178 103.839 200.485C104.856 201.793 106.741 202.029 108.049 201.011L112.833 197.287L117.616 201.011C118.924 202.029 120.809 201.793 121.826 200.485C122.842 199.178 122.607 197.295 121.301 196.278L115.83 192.02V186.485C115.83 184.83 114.488 183.488 112.833 183.488C111.177 183.488 109.835 184.83 109.835 186.485Z" fill="white"/>
</g>
</svg>
